<?xml version="1.0" standalone="no"?>
<!DOCTYPE svg PUBLIC "-//W3C//DTD SVG 20010904//EN"
 "http://www.w3.org/TR/2001/REC-SVG-20010904/DTD/svg10.dtd">
<svg version="1.0" xmlns="http://www.w3.org/2000/svg"
 width="1717.000000pt" height="88.000000pt" viewBox="0 0 1717.000000 88.000000"
 preserveAspectRatio="xMidYMid meet">

<g transform="translate(0.000000,88.000000) scale(0.100000,-0.100000)"
fill="#000000" stroke="none">
<path d="M6625 584 c-377 -14 -609 -27 -725 -39 -102 -11 -280 -15 -735 -15
-593 0 -766 -7 -875 -35 -30 -8 -113 -19 -185 -25 -119 -10 -245 -28 -750
-110 -99 -16 -265 -52 -370 -80 l-190 -50 -170 10 c-267 17 -513 44 -850 94
-47 7 -1188 30 -1423 29 -148 -1 -184 -5 -171 -17 13 -14 565 -36 881 -36 330
0 380 -2 553 -25 105 -14 215 -29 245 -35 30 -5 116 -14 190 -20 74 -6 217
-18 317 -26 138 -13 256 -15 490 -12 l308 5 235 62 c266 70 773 158 1091 191
103 11 206 24 230 29 27 7 271 11 619 11 316 0 620 5 675 10 55 5 171 16 258
24 87 9 319 19 515 22 309 6 395 4 642 -15 385 -28 656 -41 879 -41 254 0 567
-17 736 -40 425 -59 1273 -96 1625 -70 293 21 362 29 562 64 108 20 284 42
390 51 106 8 249 20 318 26 155 13 2011 5 2180 -10 63 -6 282 -13 485 -17 403
-7 575 2 635 33 30 15 66 19 235 21 208 4 375 -10 600 -48 61 -10 153 -24 205
-30 52 -6 122 -16 155 -22 33 -6 212 -13 398 -15 331 -5 337 -5 337 15 0 19
-9 20 -217 25 -149 3 -261 12 -353 26 -457 72 -583 83 -1038 88 -426 5 -613
-4 -718 -35 -75 -22 -263 -23 -544 -2 -165 12 -429 15 -1345 15 l-1140 0 -390
-33 c-258 -21 -460 -44 -595 -67 -275 -45 -508 -59 -761 -45 -414 23 -521 32
-660 56 -160 28 -344 37 -1054 54 -242 5 -515 18 -665 30 -244 21 -814 33
-1065 24z"/>
</g>
</svg>
